<mxfile host="app.diagrams.net" modified="2023-10-20T11:45:58.021Z" agent="Mozilla/5.0 (Windows NT 10.0; Win64; x64) AppleWebKit/537.36 (KHTML, like Gecko) Chrome/118.0.0.0 Safari/537.36" etag="_59RV8KTBr6xD2O8yRSZ" version="22.0.5" type="github">
  <diagram name="Страница — 1" id="jMpxzQ2-0JT3AB_N7CNl">
    <mxGraphModel dx="791" dy="873" grid="1" gridSize="10" guides="1" tooltips="1" connect="1" arrows="1" fold="1" page="1" pageScale="1" pageWidth="827" pageHeight="1169" math="0" shadow="0">
      <root>
        <mxCell id="0" />
        <mxCell id="1" parent="0" />
        <mxCell id="0MBsQQ8y8-FJ5SI4L_T3-43" style="edgeStyle=orthogonalEdgeStyle;rounded=0;orthogonalLoop=1;jettySize=auto;html=1;entryX=0.5;entryY=0;entryDx=0;entryDy=0;" edge="1" parent="1" source="0MBsQQ8y8-FJ5SI4L_T3-3" target="0MBsQQ8y8-FJ5SI4L_T3-13">
          <mxGeometry relative="1" as="geometry" />
        </mxCell>
        <mxCell id="0MBsQQ8y8-FJ5SI4L_T3-3" value="Проснуться" style="rounded=0;whiteSpace=wrap;html=1;" vertex="1" parent="1">
          <mxGeometry x="360" y="30" width="120" height="60" as="geometry" />
        </mxCell>
        <mxCell id="0MBsQQ8y8-FJ5SI4L_T3-26" style="edgeStyle=orthogonalEdgeStyle;rounded=0;orthogonalLoop=1;jettySize=auto;html=1;entryX=0.5;entryY=0;entryDx=0;entryDy=0;" edge="1" parent="1" source="0MBsQQ8y8-FJ5SI4L_T3-4" target="0MBsQQ8y8-FJ5SI4L_T3-5">
          <mxGeometry relative="1" as="geometry" />
        </mxCell>
        <mxCell id="0MBsQQ8y8-FJ5SI4L_T3-4" value="Полежать 5 минут" style="rounded=0;whiteSpace=wrap;html=1;" vertex="1" parent="1">
          <mxGeometry x="80" y="210" width="120" height="60" as="geometry" />
        </mxCell>
        <mxCell id="0MBsQQ8y8-FJ5SI4L_T3-28" style="edgeStyle=orthogonalEdgeStyle;rounded=0;orthogonalLoop=1;jettySize=auto;html=1;entryX=0.5;entryY=0;entryDx=0;entryDy=0;" edge="1" parent="1" source="0MBsQQ8y8-FJ5SI4L_T3-5" target="0MBsQQ8y8-FJ5SI4L_T3-6">
          <mxGeometry relative="1" as="geometry" />
        </mxCell>
        <mxCell id="0MBsQQ8y8-FJ5SI4L_T3-5" value="Выпить таблетки" style="rounded=0;whiteSpace=wrap;html=1;" vertex="1" parent="1">
          <mxGeometry x="80" y="310" width="120" height="60" as="geometry" />
        </mxCell>
        <mxCell id="0MBsQQ8y8-FJ5SI4L_T3-36" style="edgeStyle=orthogonalEdgeStyle;rounded=0;orthogonalLoop=1;jettySize=auto;html=1;entryX=0.5;entryY=0;entryDx=0;entryDy=0;" edge="1" parent="1" source="0MBsQQ8y8-FJ5SI4L_T3-6" target="0MBsQQ8y8-FJ5SI4L_T3-7">
          <mxGeometry relative="1" as="geometry" />
        </mxCell>
        <mxCell id="0MBsQQ8y8-FJ5SI4L_T3-6" value="Полежать еще 5 минут" style="rounded=0;whiteSpace=wrap;html=1;" vertex="1" parent="1">
          <mxGeometry x="80" y="410" width="120" height="60" as="geometry" />
        </mxCell>
        <mxCell id="0MBsQQ8y8-FJ5SI4L_T3-37" style="edgeStyle=orthogonalEdgeStyle;rounded=0;orthogonalLoop=1;jettySize=auto;html=1;" edge="1" parent="1" source="0MBsQQ8y8-FJ5SI4L_T3-7" target="0MBsQQ8y8-FJ5SI4L_T3-9">
          <mxGeometry relative="1" as="geometry" />
        </mxCell>
        <mxCell id="0MBsQQ8y8-FJ5SI4L_T3-7" value="Пойти почистить зубы, умыться" style="rounded=0;whiteSpace=wrap;html=1;" vertex="1" parent="1">
          <mxGeometry x="80" y="510" width="120" height="60" as="geometry" />
        </mxCell>
        <mxCell id="0MBsQQ8y8-FJ5SI4L_T3-38" style="edgeStyle=orthogonalEdgeStyle;rounded=0;orthogonalLoop=1;jettySize=auto;html=1;" edge="1" parent="1" source="0MBsQQ8y8-FJ5SI4L_T3-9" target="0MBsQQ8y8-FJ5SI4L_T3-10">
          <mxGeometry relative="1" as="geometry" />
        </mxCell>
        <mxCell id="0MBsQQ8y8-FJ5SI4L_T3-9" value="Пойти на кухню, приготовить еду" style="rounded=0;whiteSpace=wrap;html=1;" vertex="1" parent="1">
          <mxGeometry x="80" y="610" width="120" height="60" as="geometry" />
        </mxCell>
        <mxCell id="0MBsQQ8y8-FJ5SI4L_T3-39" style="edgeStyle=orthogonalEdgeStyle;rounded=0;orthogonalLoop=1;jettySize=auto;html=1;" edge="1" parent="1" source="0MBsQQ8y8-FJ5SI4L_T3-10" target="0MBsQQ8y8-FJ5SI4L_T3-19">
          <mxGeometry relative="1" as="geometry" />
        </mxCell>
        <mxCell id="0MBsQQ8y8-FJ5SI4L_T3-10" value="Одеться по погоде" style="rounded=0;whiteSpace=wrap;html=1;" vertex="1" parent="1">
          <mxGeometry x="80" y="710" width="120" height="60" as="geometry" />
        </mxCell>
        <mxCell id="0MBsQQ8y8-FJ5SI4L_T3-14" style="edgeStyle=orthogonalEdgeStyle;rounded=0;orthogonalLoop=1;jettySize=auto;html=1;entryX=0.5;entryY=0;entryDx=0;entryDy=0;" edge="1" parent="1" source="0MBsQQ8y8-FJ5SI4L_T3-13" target="0MBsQQ8y8-FJ5SI4L_T3-4">
          <mxGeometry relative="1" as="geometry" />
        </mxCell>
        <mxCell id="0MBsQQ8y8-FJ5SI4L_T3-16" style="edgeStyle=orthogonalEdgeStyle;rounded=0;orthogonalLoop=1;jettySize=auto;html=1;entryX=0.5;entryY=0;entryDx=0;entryDy=0;" edge="1" parent="1" source="0MBsQQ8y8-FJ5SI4L_T3-13" target="0MBsQQ8y8-FJ5SI4L_T3-15">
          <mxGeometry relative="1" as="geometry" />
        </mxCell>
        <mxCell id="0MBsQQ8y8-FJ5SI4L_T3-13" value="Будний день" style="rhombus;whiteSpace=wrap;html=1;" vertex="1" parent="1">
          <mxGeometry x="370" y="120" width="100" height="80" as="geometry" />
        </mxCell>
        <mxCell id="0MBsQQ8y8-FJ5SI4L_T3-32" style="edgeStyle=orthogonalEdgeStyle;rounded=0;orthogonalLoop=1;jettySize=auto;html=1;entryX=0.5;entryY=0;entryDx=0;entryDy=0;" edge="1" parent="1" source="0MBsQQ8y8-FJ5SI4L_T3-15" target="0MBsQQ8y8-FJ5SI4L_T3-30">
          <mxGeometry relative="1" as="geometry" />
        </mxCell>
        <mxCell id="0MBsQQ8y8-FJ5SI4L_T3-15" value="Лежать пока не надоест" style="rounded=0;whiteSpace=wrap;html=1;" vertex="1" parent="1">
          <mxGeometry x="640" y="210" width="120" height="60" as="geometry" />
        </mxCell>
        <mxCell id="0MBsQQ8y8-FJ5SI4L_T3-17" value="Да" style="text;html=1;align=center;verticalAlign=middle;resizable=0;points=[];autosize=1;strokeColor=none;fillColor=none;" vertex="1" parent="1">
          <mxGeometry x="230" y="128" width="40" height="30" as="geometry" />
        </mxCell>
        <mxCell id="0MBsQQ8y8-FJ5SI4L_T3-18" value="Нет" style="text;html=1;align=center;verticalAlign=middle;resizable=0;points=[];autosize=1;strokeColor=none;fillColor=none;" vertex="1" parent="1">
          <mxGeometry x="550" y="128" width="40" height="30" as="geometry" />
        </mxCell>
        <mxCell id="0MBsQQ8y8-FJ5SI4L_T3-40" style="edgeStyle=orthogonalEdgeStyle;rounded=0;orthogonalLoop=1;jettySize=auto;html=1;" edge="1" parent="1" source="0MBsQQ8y8-FJ5SI4L_T3-19" target="0MBsQQ8y8-FJ5SI4L_T3-20">
          <mxGeometry relative="1" as="geometry" />
        </mxCell>
        <mxCell id="0MBsQQ8y8-FJ5SI4L_T3-19" value="Дождаться в телефоне приезда автобуса" style="rounded=0;whiteSpace=wrap;html=1;" vertex="1" parent="1">
          <mxGeometry x="80" y="810" width="120" height="60" as="geometry" />
        </mxCell>
        <mxCell id="0MBsQQ8y8-FJ5SI4L_T3-42" style="edgeStyle=orthogonalEdgeStyle;rounded=0;orthogonalLoop=1;jettySize=auto;html=1;entryX=0.5;entryY=0;entryDx=0;entryDy=0;" edge="1" parent="1" source="0MBsQQ8y8-FJ5SI4L_T3-20" target="0MBsQQ8y8-FJ5SI4L_T3-21">
          <mxGeometry relative="1" as="geometry" />
        </mxCell>
        <mxCell id="0MBsQQ8y8-FJ5SI4L_T3-20" value="Сесть в автобус и ждать приезда в пед" style="rounded=0;whiteSpace=wrap;html=1;" vertex="1" parent="1">
          <mxGeometry x="80" y="910" width="120" height="60" as="geometry" />
        </mxCell>
        <mxCell id="0MBsQQ8y8-FJ5SI4L_T3-21" value="Учиться :)" style="rounded=0;whiteSpace=wrap;html=1;" vertex="1" parent="1">
          <mxGeometry x="80" y="1010" width="120" height="60" as="geometry" />
        </mxCell>
        <mxCell id="0MBsQQ8y8-FJ5SI4L_T3-35" style="edgeStyle=orthogonalEdgeStyle;rounded=0;orthogonalLoop=1;jettySize=auto;html=1;entryX=0.5;entryY=0;entryDx=0;entryDy=0;" edge="1" parent="1" source="0MBsQQ8y8-FJ5SI4L_T3-24" target="0MBsQQ8y8-FJ5SI4L_T3-25">
          <mxGeometry relative="1" as="geometry" />
        </mxCell>
        <mxCell id="0MBsQQ8y8-FJ5SI4L_T3-24" value="Пойти приготовить еду" style="rounded=0;whiteSpace=wrap;html=1;" vertex="1" parent="1">
          <mxGeometry x="640" y="510" width="120" height="60" as="geometry" />
        </mxCell>
        <mxCell id="0MBsQQ8y8-FJ5SI4L_T3-25" value="Заниматься делами на день" style="rounded=0;whiteSpace=wrap;html=1;" vertex="1" parent="1">
          <mxGeometry x="640" y="610" width="120" height="60" as="geometry" />
        </mxCell>
        <mxCell id="0MBsQQ8y8-FJ5SI4L_T3-33" style="edgeStyle=orthogonalEdgeStyle;rounded=0;orthogonalLoop=1;jettySize=auto;html=1;" edge="1" parent="1" source="0MBsQQ8y8-FJ5SI4L_T3-30" target="0MBsQQ8y8-FJ5SI4L_T3-31">
          <mxGeometry relative="1" as="geometry" />
        </mxCell>
        <mxCell id="0MBsQQ8y8-FJ5SI4L_T3-30" value="Выпить таблетки" style="rounded=0;whiteSpace=wrap;html=1;" vertex="1" parent="1">
          <mxGeometry x="640" y="310" width="120" height="60" as="geometry" />
        </mxCell>
        <mxCell id="0MBsQQ8y8-FJ5SI4L_T3-34" style="edgeStyle=orthogonalEdgeStyle;rounded=0;orthogonalLoop=1;jettySize=auto;html=1;" edge="1" parent="1" source="0MBsQQ8y8-FJ5SI4L_T3-31" target="0MBsQQ8y8-FJ5SI4L_T3-24">
          <mxGeometry relative="1" as="geometry" />
        </mxCell>
        <mxCell id="0MBsQQ8y8-FJ5SI4L_T3-31" value="Пойти почистить зубы, умыться" style="rounded=0;whiteSpace=wrap;html=1;" vertex="1" parent="1">
          <mxGeometry x="640" y="410" width="120" height="60" as="geometry" />
        </mxCell>
      </root>
    </mxGraphModel>
  </diagram>
</mxfile>
